<svg xmlns="http://www.w3.org/2000/svg" viewBox="0 0 111.58 134.62">
  <defs>
    <style>
      .cls-1 {
        fill: #3c3c3b;
        stroke: #3c3c3b;
      }

      .cls-1, .cls-2, .cls-3 {
        stroke-miterlimit: 10;
      }

      .cls-2 {
        fill: #1d1d1b;
        stroke: #1d1d1b;
      }

      .cls-3 {
        fill: #dadada;
        stroke: #dadada;
      }
    </style>
  </defs>
  <g id="Layer_2" data-name="Layer 2">
    <g id="Layer_1-2" data-name="Layer 1">
      <path class="cls-1" d="M109.11,69.49C120.21,89.69,82,130.56,56.19,134c-23,3-63.57-39.08-54.35-64.47C11,44.3,38,4.25,55.48.65,72-2.76,100.47,53.77,109.11,69.49Z"/>
      <path class="cls-2" d="M9.28,75.09c0-22,22.45-37.3,44.45-37.3s44.1,14.82,44.1,36.81-22.1,42.85-44.1,42.85S9.28,97.09,9.28,75.09Z"/>
      <path class="cls-2" d="M46.31,31.1c11-1,20.33,1.13,30.53,2.71,2,.31-7.78-3.62-4.39-3.1C58.29,28.45,39,27.9,26.73,36.37,33.13,36.07,39.87,31.68,46.31,31.1Z"/>
      <path class="cls-3" d="M78,90.27c5.79-1.64,9.52-7.3,8.35-12.65l-21,5.92C66.56,88.89,72.21,91.9,78,90.27Z"/>
      <path class="cls-3" d="M29,91c5.87,1.27,11.83-2,13.3-7.26L21.06,79.1C19.59,84.38,23.16,89.68,29,91Z"/>
    </g>
  </g>
</svg>
